<?xml version="1.0" encoding="utf-8"?>
<svg id="master-artboard" viewBox="0 0 120 120" xmlns="http://www.w3.org/2000/svg" width="120px" height="120px" version="1.1" style="shape-rendering:geometricPrecision; text-rendering:geometricPrecision; image-rendering:optimizeQuality; fill-rule:evenodd; clip-rule:evenodd"><rect id="ee-background" x="0" y="0" width="120" height="120" style="fill: white; fill-opacity: 0; pointer-events: none;"/>
 
 <metadata id="CorelCorpID_0Corel-Layer"/>
<g transform="matrix(5.41811466217041, 0, 0, 5.41811466217041, -7.989788055419922, -4.2768120765686035)"><path d="M 0 0 L 0 0 L 0 0 L 0 0 L 0 0 Z" id="backgroundrect" fill="none" stroke="none" class="" style=""/><g class="currentLayer" style=""><title>Layer 1</title><path d="M 20.57128022618084 6.416316965337067 C 20.48040525298545 6.319176703359659 20.340242158734927 6.292104827070873 20.22164261744603 6.348478028283992 L 4.931543313875924 13.60374087367853 C 4.808631061994701 13.662343523527197 4.73685523570817 13.796428934322243 4.7547221795906545 13.935291735050603 C 4.772589123473139 14.074154535778963 4.875786126932311 14.18435299690743 5.00917210453775 14.207284468587346 L 11.867306098602054 15.395580591333937 L 12.651295274135165 22.09602921913947 C 12.66793001499127 22.235529005192273 12.771127018450443 22.34795691495629 12.905129097569073 22.371525371960644 C 12.922687990694962 22.374710298582855 12.939938833064257 22.37630276189396 12.957189675433552 22.37630276189396 C 13.072708709156506 22.37630276189396 13.180834524721192 22.309100810165326 13.233203153342265 22.19922084169908 L 20.626421311611296 6.779398600269056 C 20.684334853851034 6.65868988128726 20.66215519937623 6.5131387346522605 20.57128022618084 6.416316965337067 Z M 13.13893962182429 20.961239863645996 L 12.451370333105267 15.08282079703288 C 12.434735592249162 14.942684025655637 12.330922487276798 14.83025611589162 12.196304306644983 14.807006151549487 L 6.099363732125807 13.750247498300181 L 19.687790656267687 7.302682044298143 L 13.13893962182429 20.961239863645996 Z" id="svg_1" class="" transform="rotate(-44.90695571899414 12.7052001953125,14.347840309143066) "/><g id="svg_2" class="">
</g><g id="svg_3" class="">
</g><g id="svg_4" class="">
</g><g id="svg_5" class="">
</g><g id="svg_6" class="">
</g><g id="svg_7" class="">
</g><g id="svg_8" class="">
</g><g id="svg_9" class="">
</g><g id="svg_10" class="">
</g><g id="svg_11" class="">
</g><g id="svg_12" class="">
</g><g id="svg_13" class="">
</g><g id="svg_14" class="">
</g><g id="svg_15" class="">
</g><g id="svg_16" class="">
</g><path fill="" fill-opacity="1" stroke="none" stroke-opacity="1" stroke-width="1" stroke-dasharray="none" stroke-linejoin="miter" stroke-linecap="butt" stroke-dashoffset="" fill-rule="nonzero" opacity="1" marker-start="" marker-mid="" marker-end="" id="svg_19" style="color: rgb(0, 0, 0);" class=""/><path fill="" fill-opacity="1" stroke="none" stroke-opacity="1" stroke-width="1" stroke-dasharray="none" stroke-linejoin="miter" stroke-linecap="butt" stroke-dashoffset="" fill-rule="nonzero" opacity="1" marker-start="" marker-mid="" marker-end="" id="svg_18" style="color: rgb(0, 0, 0);" class=""/><path d="M 2 0 L 2 0 L 2 0 L 2 0 L 2 0 Z" fill="#0b0bd5" stroke-dashoffset="" fill-rule="nonzero" id="svg_21" style="color: rgb(0, 0, 0);" class=""/></g></g><path d="M 425.8153076171875 228.2977294921875 L 451.7552490234375 639.631103515625" style="fill: rgb(255, 240, 0); fill-opacity: 1; stroke: rgb(0, 0, 0); stroke-opacity: 1; stroke-width: 0; paint-order: fill;" transform="matrix(0.13268857270046724, 0, 0, 0.13268857270046724, -30.770775310456628, 8.723181687887754)"/><path d="M 721.134521484375 183.50027465820312 L 926.6495361328125 771.4517211914062 L 728.2828979492188 607.0397338867188 L 512.04541015625 760.7291870117188" style="fill: rgb(255, 240, 0); fill-opacity: 1; stroke: rgb(0, 0, 0); stroke-opacity: 1; stroke-width: 0; paint-order: fill;" transform="matrix(0.13268858194351196, 0, 0, 0.13268858194351196, -35.225181579589844, -5.347740173339844)"/></svg>