<svg width="512" height="512" xmlns="http://www.w3.org/2000/svg" role="img" class="svg-inline--fa fa-image fa-w-16" data-icon="image" data-prefix="far" focusable="false" aria-hidden="true">

 <g>
  <title>Layer 1</title>
  <path id="svg_1" d="m464,64l-416,0c-26.51,0 -48,21.49 -48,48l0,288c0,26.51 21.49,48 48,48l416,0c26.51,0 48,-21.49 48,-48l0,-288c0,-26.51 -21.49,-48 -48,-48zm-6,336l-404,0a6,6 0 0 1 -6,-6l0,-276a6,6 0 0 1 6,-6l404,0a6,6 0 0 1 6,6l0,276a6,6 0 0 1 -6,6zm-330,-248c-22.091,0 -40,17.909 -40,40s17.909,40 40,40s40,-17.909 40,-40s-17.909,-40 -40,-40zm-32,200l320,0l0,-80l-87.515,-87.515c-4.686,-4.686 -12.284,-4.686 -16.971,0l-119.514,119.515l-39.515,-39.515c-4.686,-4.686 -12.284,-4.686 -16.971,0l-39.514,39.515l0,48z" fill="#BBBBBB"/>
 </g>
</svg>