<svg width="400" height="150" xmlns="http://www.w3.org/2000/svg" preserveAspectRatio="xMidYMid meet">
 <metadata>Created by potrace 1.15, written by Peter Selinger 2001-2017</metadata>

 <g>
  <title>background</title>
  <rect fill="none" id="canvas_background" height="152" width="402" y="-1" x="-1"/>
 </g>
 <g>
  <title>Layer 1</title>
  <g id="svg_1" fill="#4caf50" transform="translate(0,1130) scale(0.10000000149011612,-0.10000000149011612) ">
   <path stroke="null" id="svg_2" d="m230.329311,11220.455142c-82.757012,-10.102769 -137.40787,-32.765739 -152.241674,-63.347095c-6.245812,-12.5602 -7.807265,-157.548594 -6.245812,-501.042754l2.34218,-483.294646l18.737437,-14.471535c10.930171,-8.464482 33.571241,-19.113348 56.21231,-26.212591c67.923208,-21.29773 50.747225,-20.751635 586.325625,-20.751635l474.681731,0l0,-7.918387c0,-6.826196 -71.046114,-240.555132 -81.195559,-267.859914l-3.903633,-9.556674l21.079616,8.464482c11.710898,4.914861 171.759837,69.081099 356.792025,142.804011l335.712409,134.066481l961.07436,0l961.07436,0l47.624318,8.464482c50.747225,8.73753 77.291927,18.021156 105.398082,36.31536l17.175984,11.194961l2.34218,495.581798c2.34218,557.017558 7.026539,510.872476 -57.773763,535.173732c-18.737437,6.826196 -50.747225,15.563726 -71.046114,19.113348l-37.474874,6.826196l-1748.827431,0.546096c-1642.648623,0.546096 -1751.16961,0.273048 -1787.863757,-4.095717z"/>
  </g>
 </g>
</svg>