<svg width="600" height="150" xmlns="http://www.w3.org/2000/svg" preserveAspectRatio="xMidYMid meet">
 <metadata>Created by potrace 1.15, written by Peter Selinger 2001-2017</metadata>

 <g>
  <title>background</title>
  <rect x="-1" y="-1" width="602" height="152" id="canvas_background" fill="none"/>
 </g>
 <g>
  <title>Layer 1</title>
  <g stroke="null" transform="translate(0,1130) scale(0.10000000149011612,-0.10000000149011612) " fill="#4caf50" id="svg_1">
   <path stroke="null" d="m311.930508,11029.445654c-125.215626,-7.77707 -207.905196,-25.222928 -230.349501,-48.764321c-9.450233,-9.668789 -11.812802,-121.280244 -9.450233,-385.700592l3.543824,-372.038165l28.350713,-11.14013c16.537911,-6.515921 50.795018,-14.713376 85.052125,-20.178341c102.771321,-16.394902 76.783177,-15.974517 887.140927,-15.974517l718.217946,0l0,-6.095543c0,-5.25478 -107.496445,-185.178319 -122.853071,-206.197423l-5.906394,-7.356692l31.894537,6.515921c17.719196,3.783438 259.881499,53.178338 539.844748,109.929921l507.950196,103.203816l1454.155088,0l1454.155088,0l72.058038,6.515921c76.783177,6.726114 116.946678,13.872605 159.472748,27.95541l25.988144,8.617833l3.543839,381.496768c3.543839,428.789748 10.631518,393.267461 -87.414679,411.974468c-28.350713,5.254772 -76.783177,11.980886 -107.496445,14.713376l-56.701412,5.254772l-2646.066123,0.420385c-2485.412121,0.420378 -2649.609962,0.210193 -2705.130104,-3.152868z" id="svg_2"/>
  </g>
 </g>
</svg>