<svg width="24" height="24" xmlns="http://www.w3.org/2000/svg">
 <g>
  <title>background</title>
  <rect fill="none" id="canvas_background" height="5.999954" width="5.999954" y="-1" x="-1"/>
 </g>

 <g>
  <title>Layer 1</title>
  <path fill="#191919" id="svg_1" d="m11.963192,0c-5.522,0 -10,4.395 -10,9.815c0,5.505 4.375,9.268 10,14.185c5.625,-4.917 10,-8.68 10,-14.185c0,-5.42 -4.478,-9.815 -10,-9.815zm0,18c-4.419,0 -8,-3.582 -8,-8s3.581,-8 8,-8s8,3.582 8,8s-3.581,8 -8,8zm0,-13l1.564808,3.116192l3.435192,0.515808l-2.527,2.429l0.617,3.45l-3.09,-1.654l-3.09,1.653l0.617,-3.45l-2.527,-2.428l3.472,-0.479l1.528,-3.153z"/>
  <path id="svg_3" d="m11.466285,8.813243" opacity="0.5" fill-opacity="null" stroke-opacity="null" stroke-width="null" stroke="null" fill="#f15b48"/>
  <ellipse id="svg_4" cy="5.463727" cx="9.699507" fill-opacity="null" stroke-opacity="null" stroke-width="null" stroke="null" fill="#f15b48"/>
  <ellipse stroke="null" ry="8.024116" rx="8.024116" id="svg_5" cy="9.991095" cx="11.981595" stroke-opacity="null" stroke-width="null" fill="#ffffff"/>
  <text fill="#191919" stroke="null" stroke-width="2" stroke-opacity="null" x="8.218754" y="13.930988" id="svg_2" font-size="12" font-family="Helvetica, Arial, sans-serif" text-anchor="start" xml:space="preserve">E</text>
 </g>
</svg>