<svg xmlns="http://www.w3.org/2000/svg" xmlns:xlink="http://www.w3.org/1999/xlink" width="44" height="44" viewBox="0 0 44 44">
  <defs>
    <clipPath id="clip-icon_eye_slash">
      <rect width="44" height="44"/>
    </clipPath>
  </defs>
  <g id="icon_eye_slash" clip-path="url(#clip-icon_eye_slash)">
    <g id="icon_eye_slash-2" data-name="icon_eye_slash">
      <rect id="bk" width="44" height="44" fill="none"/>
      <path id="eye-slash-solid" d="M13,16.247A5.828,5.828,0,0,1,7.2,10.839L2.935,7.546A13.54,13.54,0,0,0,1.443,9.8a1.314,1.314,0,0,0,0,1.186A13.03,13.03,0,0,0,13,18.2a12.619,12.619,0,0,0,3.164-.425l-2.108-1.631A5.855,5.855,0,0,1,13,16.247Zm12.749,2.36-4.491-3.471a13.457,13.457,0,0,0,3.3-4.147,1.314,1.314,0,0,0,0-1.186A13.03,13.03,0,0,0,13,2.6,12.519,12.519,0,0,0,7.017,4.128L1.848.134A.65.65,0,0,0,.936.248l-.8,1.027a.65.65,0,0,0,.114.912l23.9,18.473a.65.65,0,0,0,.912-.114l.8-1.027A.65.65,0,0,0,25.75,18.607Zm-7.464-5.769L16.69,11.6a3.849,3.849,0,0,0-4.717-4.953A1.936,1.936,0,0,1,12.351,7.8a1.9,1.9,0,0,1-.063.406L9.3,5.892A5.781,5.781,0,0,1,13,4.547a5.847,5.847,0,0,1,5.85,5.85,5.711,5.711,0,0,1-.565,2.442Z" transform="translate(8.999 12.004)" fill="#112b4e"/>
    </g>
  </g>
</svg>
