<svg xmlns="http://www.w3.org/2000/svg" xmlns:xlink="http://www.w3.org/1999/xlink" width="44" height="44" viewBox="0 0 44 44">
  <defs>
    <clipPath id="clip-icon_check">
      <rect width="44" height="44"/>
    </clipPath>
  </defs>
  <g id="icon_check" clip-path="url(#clip-icon_check)">
    <g id="icon_check-2" data-name="icon_check">
      <rect id="bk" width="44" height="44" fill="none"/>
      <path id="check-circle-solid" d="M26,17a9,9,0,1,1-9-9A9,9,0,0,1,26,17ZM15.959,21.765l6.677-6.677a.581.581,0,0,0,0-.821l-.821-.821a.581.581,0,0,0-.821,0l-5.446,5.446-2.542-2.542a.581.581,0,0,0-.821,0l-.821.821a.581.581,0,0,0,0,.821l3.774,3.774a.581.581,0,0,0,.821,0Z" transform="translate(5 5)" fill="#112b4e"/>
    </g>
  </g>
</svg>
