<svg xmlns="http://www.w3.org/2000/svg" xmlns:xlink="http://www.w3.org/1999/xlink" width="44" height="44" viewBox="0 0 44 44">
  <defs>
    <clipPath id="clip-icon_error">
      <rect width="44" height="44"/>
    </clipPath>
  </defs>
  <g id="icon_error" clip-path="url(#clip-icon_error)">
    <g id="icon_error-2" data-name="icon_error">
      <rect id="bk" width="44" height="44" fill="none"/>
      <path id="exclamation-circle-solid" d="M26,17a9,9,0,1,1-9-9A9,9,0,0,1,26,17Zm-9,1.815a1.669,1.669,0,1,0,1.669,1.669A1.669,1.669,0,0,0,17,18.815Zm-1.585-6,.269,4.935a.435.435,0,0,0,.435.412h1.762a.435.435,0,0,0,.435-.412l.269-4.935a.435.435,0,0,0-.435-.459h-2.3A.435.435,0,0,0,15.415,12.814Z" transform="translate(5 5)" fill="#112b4e"/>
    </g>
  </g>
</svg>
