<svg xmlns="http://www.w3.org/2000/svg" xmlns:xlink="http://www.w3.org/1999/xlink" width="44" height="44" viewBox="0 0 44 44">
  <defs>
    <clipPath id="clip-icon_sensor">
      <rect width="44" height="44"/>
    </clipPath>
  </defs>
  <g id="icon_sensor" clip-path="url(#clip-icon_sensor)">
    <g id="icon_sensor-2" data-name="icon_sensor">
      <g id="Rectangle_1675" data-name="Rectangle 1675" fill="#fff" stroke="#707070" stroke-width="1" opacity="0">
        <rect width="44" height="44" stroke="none"/>
        <rect x="0.5" y="0.5" width="43" height="43" fill="none"/>
      </g>
      <path id="thermometer-half-solid" d="M7.5,15a2.5,2.5,0,1,1-3.75-2.165V8.75a1.25,1.25,0,1,1,2.5,0v4.085A2.5,2.5,0,0,1,7.5,15Zm1.25-3.307A5,5,0,0,1,5,20H4.965A5,5,0,0,1,1.25,11.693V3.75a3.75,3.75,0,1,1,7.5,0ZM8.125,15a3.628,3.628,0,0,0-1.25-2.6V3.75a1.875,1.875,0,1,0-3.75,0V12.4a3.636,3.636,0,0,0-1.25,2.581,3.138,3.138,0,0,0,3.1,3.141H5A3.129,3.129,0,0,0,8.125,15Z" transform="translate(17 12)" fill="#112b4e"/>
    </g>
  </g>
</svg>
