<svg xmlns="http://www.w3.org/2000/svg" xmlns:xlink="http://www.w3.org/1999/xlink" width="44" height="44" viewBox="0 0 44 44">
  <defs>
    <clipPath id="clip-icon_manage_store">
      <rect width="44" height="44"/>
    </clipPath>
  </defs>
  <g id="icon_manage_store" clip-path="url(#clip-icon_manage_store)">
    <g id="icon_manage_store-2" data-name="icon_manage_store">
      <rect id="bk" width="44" height="44" fill="none"/>
      <path id="laptop-house-solid" d="M9.35,9.9H7.15a.55.55,0,0,1-.55-.55V7.15a.55.55,0,0,1,.55-.55h2.2a.55.55,0,0,1,.55.55V8.426A2.031,2.031,0,0,1,11.44,7.7h4.707l.229-.259a.568.568,0,0,0,.124-.326.561.561,0,0,0-.163-.365L14.3,4.95V1.65a.55.55,0,0,0-.55-.55h-1.1a.55.55,0,0,0-.55.55V3L9.058.307A1.4,1.4,0,0,0,8.252,0a1.407,1.407,0,0,0-.807.307L.164,6.752A.555.555,0,0,0,0,7.116a.564.564,0,0,0,.122.323l.646.733a.558.558,0,0,0,.366.164.568.568,0,0,0,.321-.12L2.2,7.558V13.2a1.1,1.1,0,0,0,1.1,1.1H9.35Zm12.283,5.5H20.35V9.9a1.049,1.049,0,0,0-.99-1.1H11.44a1.049,1.049,0,0,0-.99,1.1v5.5H9.167a.367.367,0,0,0-.367.367v.366A1.472,1.472,0,0,0,10.264,17.6H20.536A1.472,1.472,0,0,0,22,16.133v-.366a.367.367,0,0,0-.367-.367Zm-2.933,0H12.1V10.45h6.6Z" transform="translate(11 13)" fill="#112b4e"/>
    </g>
  </g>
</svg>
