<svg xmlns="http://www.w3.org/2000/svg" xmlns:xlink="http://www.w3.org/1999/xlink" width="44" height="44" viewBox="0 0 44 44">
  <defs>
    <clipPath id="clip-icon_user">
      <rect width="44" height="44"/>
    </clipPath>
  </defs>
  <g id="icon_user" clip-path="url(#clip-icon_user)">
    <g id="icon_user-2" data-name="icon_user">
      <rect id="bk" width="44" height="44" fill="none"/>
      <path id="Icon_Customers" data-name="Icon Customers" d="M-4-310a6.018,6.018,0,0,1,6-6H4a6.018,6.018,0,0,1,6,6Zm2.6-2H7.5A4.033,4.033,0,0,0,4-314H2.1A4.035,4.035,0,0,0-1.4-312Zm.4-9v-1a4.012,4.012,0,0,1,4-4,4.012,4.012,0,0,1,4,4v1a4.012,4.012,0,0,1-4,4A4.012,4.012,0,0,1-1-321Zm2-1v1a2.006,2.006,0,0,0,2,2,2.006,2.006,0,0,0,2-2v-1a2.006,2.006,0,0,0-2-2A2.006,2.006,0,0,0,1-322Z" transform="translate(18.999 340)" fill="#112b4e"/>
    </g>
  </g>
</svg>
