<svg xmlns="http://www.w3.org/2000/svg" xmlns:xlink="http://www.w3.org/1999/xlink" width="44" height="44" viewBox="0 0 44 44">
  <defs>
    <clipPath id="clip-icon_mail">
      <rect width="44" height="44"/>
    </clipPath>
  </defs>
  <g id="icon_mail" clip-path="url(#clip-icon_mail)">
    <g id="icon_mail-2" data-name="icon_mail">
      <rect id="bk" width="44" height="44" fill="#0c3c8d" opacity="0"/>
      <path id="envelope-regular" d="M16.313,64H1.687A1.687,1.687,0,0,0,0,65.688V75.813A1.687,1.687,0,0,0,1.687,77.5H16.313A1.687,1.687,0,0,0,18,75.813V65.688A1.687,1.687,0,0,0,16.313,64Zm0,1.688v1.435c-.788.642-2.045,1.64-4.732,3.744-.592.466-1.765,1.585-2.581,1.572-.816.013-1.989-1.106-2.581-1.572-2.686-2.1-3.943-3.1-4.732-3.744V65.688ZM1.687,75.813V69.287c.806.642,1.948,1.542,3.689,2.906.768.6,2.114,1.94,3.623,1.932,1.5.008,2.83-1.308,3.623-1.932,1.741-1.363,2.884-2.264,3.69-2.906v6.525Z" transform="translate(13 -49)" fill="#112b4e"/>
    </g>
  </g>
</svg>